<svg xmlns="http://www.w3.org/2000/svg" width="88" height="88" viewBox="0 0 88 88" shape-rendering="crispEdges">
  <rect width="88" height="88" fill="none"/>
  <rect x="34" y="11" width="20" height="7" fill="#6f5a2d"/>
  <rect x="29" y="18" width="30" height="6" fill="#b98a43"/>
  <rect x="32" y="24" width="24" height="20" fill="#d7b181"/>
  <rect x="28" y="30" width="5" height="10" fill="#d7b181"/>
  <rect x="55" y="30" width="5" height="10" fill="#d7b181"/>
  <rect x="36" y="30" width="5" height="4" fill="#1b1512"/>
  <rect x="48" y="30" width="5" height="4" fill="#1b1512"/>
  <rect x="39" y="38" width="10" height="3" fill="#7a3f32"/>
  <rect x="29" y="44" width="30" height="24" fill="#49647a"/>
  <rect x="33" y="47" width="22" height="8" fill="#d4c07a"/>
  <rect x="25" y="48" width="8" height="22" fill="#8c5a3a"/>
  <rect x="55" y="48" width="8" height="22" fill="#8c5a3a"/>
  <rect x="20" y="55" width="8" height="5" fill="#c8c8b8"/>
  <rect x="60" y="55" width="8" height="5" fill="#c8c8b8"/>
  <rect x="34" y="68" width="8" height="9" fill="#2b2f3c"/>
  <rect x="46" y="68" width="8" height="9" fill="#2b2f3c"/>
  <rect x="30" y="77" width="13" height="5" fill="#3b2b22"/>
  <rect x="45" y="77" width="13" height="5" fill="#3b2b22"/>
  <rect x="15" y="42" width="4" height="30" fill="#b8b8a0"/>
  <rect x="12" y="39" width="10" height="5" fill="#d8d0b0"/>
</svg>
