<svg xmlns="http://www.w3.org/2000/svg" width="88" height="88" viewBox="0 0 88 88" shape-rendering="crispEdges">
  <rect width="88" height="88" fill="none"/>
  <rect x="31" y="12" width="26" height="8" fill="#313844"/>
  <rect x="27" y="20" width="34" height="7" fill="#56606f"/>
  <rect x="33" y="27" width="22" height="18" fill="#c39b72"/>
  <rect x="35" y="32" width="5" height="4" fill="#15191d"/>
  <rect x="49" y="32" width="5" height="4" fill="#15191d"/>
  <rect x="40" y="41" width="9" height="3" fill="#50302a"/>
  <rect x="30" y="45" width="28" height="25" fill="#2d3340"/>
  <rect x="34" y="49" width="20" height="4" fill="#9aa4aa"/>
  <rect x="39" y="53" width="10" height="13" fill="#7d2f2f"/>
  <rect x="24" y="48" width="7" height="23" fill="#3f4655"/>
  <rect x="57" y="48" width="7" height="23" fill="#3f4655"/>
  <rect x="20" y="63" width="8" height="5" fill="#bfc7cc"/>
  <rect x="61" y="63" width="8" height="5" fill="#bfc7cc"/>
  <rect x="67" y="31" width="4" height="36" fill="#68717c"/>
  <rect x="64" y="27" width="10" height="6" fill="#aeb8c0"/>
  <rect x="34" y="70" width="8" height="9" fill="#20242c"/>
  <rect x="47" y="70" width="8" height="9" fill="#20242c"/>
  <rect x="30" y="79" width="13" height="5" fill="#171a20"/>
  <rect x="46" y="79" width="13" height="5" fill="#171a20"/>
</svg>
